<mxfile host="65bd71144e" scale="3" border="0">
    <diagram id="AHQmz1cm1CBAY708ywJZ" name="Page-1">
        <mxGraphModel dx="3767" dy="2613" grid="1" gridSize="10" guides="1" tooltips="1" connect="1" arrows="1" fold="1" page="1" pageScale="1" pageWidth="1169" pageHeight="827" math="0" shadow="0">
            <root>
                <mxCell id="0"/>
                <mxCell id="1" parent="0"/>
                <mxCell id="102" value="" style="group" vertex="1" connectable="0" parent="1">
                    <mxGeometry width="1650" height="520" as="geometry"/>
                </mxCell>
                <mxCell id="90" value="" style="group" vertex="1" connectable="0" parent="102">
                    <mxGeometry x="210" width="610" height="520" as="geometry"/>
                </mxCell>
                <mxCell id="26" value="Frontend" style="whiteSpace=wrap;html=1;verticalAlign=top;fontSize=15;" parent="90" vertex="1">
                    <mxGeometry width="610" height="520" as="geometry"/>
                </mxCell>
                <mxCell id="24" value="View" style="shape=umlLifeline;perimeter=lifelinePerimeter;whiteSpace=wrap;html=1;container=1;collapsible=0;recursiveResize=0;outlineConnect=0;" parent="90" vertex="1">
                    <mxGeometry x="170" y="30" width="120" height="470" as="geometry"/>
                </mxCell>
                <mxCell id="25" value="" style="html=1;points=[];perimeter=orthogonalPerimeter;" parent="24" vertex="1">
                    <mxGeometry x="55" y="63.56" width="10" height="342.89" as="geometry"/>
                </mxCell>
                <mxCell id="29" value="&lt;span style=&quot;font-size: 12px;&quot;&gt;View&lt;/span&gt;" style="rounded=0;whiteSpace=wrap;html=1;fontSize=16;" parent="24" vertex="1">
                    <mxGeometry y="430" width="120" height="40" as="geometry"/>
                </mxCell>
                <mxCell id="80" value="Response" style="html=1;verticalAlign=bottom;labelBackgroundColor=none;endArrow=block;endFill=1;endSize=6;align=left;fontSize=12;exitX=0.012;exitY=1;exitDx=0;exitDy=0;exitPerimeter=0;entryX=1.152;entryY=0.942;entryDx=0;entryDy=0;entryPerimeter=0;" edge="1" parent="24">
                    <mxGeometry x="0.3571" y="-1" relative="1" as="geometry">
                        <mxPoint x="54.99999999999994" y="406.0000000000002" as="sourcePoint"/>
                        <mxPoint x="-83.59999999999997" y="406.1740400000001" as="targetPoint"/>
                        <mxPoint as="offset"/>
                    </mxGeometry>
                </mxCell>
                <mxCell id="63" value="Api-Connector" style="shape=umlLifeline;perimeter=lifelinePerimeter;whiteSpace=wrap;html=1;container=1;collapsible=0;recursiveResize=0;outlineConnect=0;" vertex="1" parent="90">
                    <mxGeometry x="470" y="30" width="120" height="470" as="geometry"/>
                </mxCell>
                <mxCell id="64" value="" style="html=1;points=[];perimeter=orthogonalPerimeter;" vertex="1" parent="63">
                    <mxGeometry x="55" y="99.99999999999999" width="10" height="282.92" as="geometry"/>
                </mxCell>
                <mxCell id="65" value="&lt;span style=&quot;font-size: 12px;&quot;&gt;Api-Connector&lt;/span&gt;" style="rounded=0;whiteSpace=wrap;html=1;fontSize=16;" vertex="1" parent="63">
                    <mxGeometry y="430" width="120" height="40" as="geometry"/>
                </mxCell>
                <mxCell id="78" value="Response" style="html=1;verticalAlign=bottom;labelBackgroundColor=none;endArrow=block;endFill=1;endSize=6;align=left;fontSize=12;exitX=0.012;exitY=1;exitDx=0;exitDy=0;exitPerimeter=0;entryX=1.152;entryY=0.942;entryDx=0;entryDy=0;entryPerimeter=0;" edge="1" parent="63">
                    <mxGeometry x="0.3571" y="-1" relative="1" as="geometry">
                        <mxPoint x="54.999999999999886" y="382.91999999999996" as="sourcePoint"/>
                        <mxPoint x="-83.60000000000002" y="383.09404000000006" as="targetPoint"/>
                        <mxPoint as="offset"/>
                    </mxGeometry>
                </mxCell>
                <mxCell id="67" value="Hook" style="shape=umlLifeline;perimeter=lifelinePerimeter;whiteSpace=wrap;html=1;container=1;collapsible=0;recursiveResize=0;outlineConnect=0;" vertex="1" parent="90">
                    <mxGeometry x="320" y="30" width="120" height="470" as="geometry"/>
                </mxCell>
                <mxCell id="68" value="" style="html=1;points=[];perimeter=orthogonalPerimeter;" vertex="1" parent="67">
                    <mxGeometry x="55" y="78.7" width="10" height="312.6" as="geometry"/>
                </mxCell>
                <mxCell id="69" value="&lt;span style=&quot;font-size: 12px;&quot;&gt;Hook&lt;/span&gt;" style="rounded=0;whiteSpace=wrap;html=1;fontSize=16;" vertex="1" parent="67">
                    <mxGeometry y="430" width="120" height="40" as="geometry"/>
                </mxCell>
                <mxCell id="70" value="Request" style="html=1;verticalAlign=bottom;labelBackgroundColor=none;endArrow=block;endFill=1;endSize=6;align=left;fontSize=12;exitX=1.017;exitY=0.022;exitDx=0;exitDy=0;exitPerimeter=0;entryX=-0.01;entryY=-0.005;entryDx=0;entryDy=0;entryPerimeter=0;" edge="1" parent="90">
                    <mxGeometry x="-0.3571" relative="1" as="geometry">
                        <mxPoint x="385.16999999999985" y="126.71440000000001" as="sourcePoint"/>
                        <mxPoint x="524.8999999999999" y="126.97340000000003" as="targetPoint"/>
                        <mxPoint as="offset"/>
                    </mxGeometry>
                </mxCell>
                <mxCell id="71" value="Router" style="shape=umlLifeline;perimeter=lifelinePerimeter;whiteSpace=wrap;html=1;container=1;collapsible=0;recursiveResize=0;outlineConnect=0;" vertex="1" parent="90">
                    <mxGeometry x="20" y="30" width="120" height="470" as="geometry"/>
                </mxCell>
                <mxCell id="72" value="" style="html=1;points=[];perimeter=orthogonalPerimeter;" vertex="1" parent="71">
                    <mxGeometry x="55" y="47.64" width="10" height="374.73" as="geometry"/>
                </mxCell>
                <mxCell id="73" value="&lt;span style=&quot;font-size: 12px;&quot;&gt;Router&lt;/span&gt;" style="rounded=0;whiteSpace=wrap;html=1;fontSize=16;" vertex="1" parent="71">
                    <mxGeometry y="430" width="120" height="40" as="geometry"/>
                </mxCell>
                <mxCell id="85" value="Response" style="html=1;verticalAlign=bottom;labelBackgroundColor=none;endArrow=block;endFill=1;endSize=6;align=left;fontSize=12;exitX=0.012;exitY=1;exitDx=0;exitDy=0;exitPerimeter=0;entryX=1;entryY=0.5;entryDx=0;entryDy=0;" edge="1" parent="71">
                    <mxGeometry x="0.3571" y="-1" relative="1" as="geometry">
                        <mxPoint x="55" y="421.5400000000002" as="sourcePoint"/>
                        <mxPoint x="-82" y="421" as="targetPoint"/>
                        <mxPoint as="offset"/>
                    </mxGeometry>
                </mxCell>
                <mxCell id="75" value="Request" style="html=1;verticalAlign=bottom;labelBackgroundColor=none;endArrow=block;endFill=1;endSize=6;align=left;fontSize=12;exitX=1;exitY=0.029;exitDx=0;exitDy=0;exitPerimeter=0;" edge="1" parent="90">
                    <mxGeometry x="-0.3571" relative="1" as="geometry">
                        <mxPoint x="235" y="104.99524000000005" as="sourcePoint"/>
                        <mxPoint x="377" y="105.15999999999983" as="targetPoint"/>
                        <mxPoint as="offset"/>
                    </mxGeometry>
                </mxCell>
                <mxCell id="76" value="Request" style="html=1;verticalAlign=bottom;labelBackgroundColor=none;endArrow=block;endFill=1;endSize=6;align=left;fontSize=12;exitX=1;exitY=0.029;exitDx=0;exitDy=0;exitPerimeter=0;" edge="1" parent="90">
                    <mxGeometry x="-0.3571" relative="1" as="geometry">
                        <mxPoint x="85" y="88.99524000000008" as="sourcePoint"/>
                        <mxPoint x="227" y="89.15999999999985" as="targetPoint"/>
                        <mxPoint as="offset"/>
                    </mxGeometry>
                </mxCell>
                <mxCell id="79" value="Response" style="html=1;verticalAlign=bottom;labelBackgroundColor=none;endArrow=block;endFill=1;endSize=6;align=left;fontSize=12;exitX=0.012;exitY=1;exitDx=0;exitDy=0;exitPerimeter=0;entryX=1.152;entryY=0.942;entryDx=0;entryDy=0;entryPerimeter=0;" edge="1" parent="90">
                    <mxGeometry x="0.3571" y="-1" relative="1" as="geometry">
                        <mxPoint x="375.3" y="421.0000000000001" as="sourcePoint"/>
                        <mxPoint x="236.7000000000001" y="421.17404" as="targetPoint"/>
                        <mxPoint as="offset"/>
                    </mxGeometry>
                </mxCell>
                <mxCell id="2" value="Nginx Reverse Proxy" style="shape=image;editableCssRules=.*;image=data:image/svg+xml,PHN2ZyB2aWV3Qm94PSIwIDAgMjQgMjQiIHhtbG5zPSJodHRwOi8vd3d3LnczLm9yZy8yMDAwL3N2ZyI+PHN0eWxlPip7ZmlsbDojMDA5NjM5fTwvc3R5bGU+PHBhdGggZD0iTTEyIDBMMS42MDUgNnYxMkwxMiAyNGwxMC4zOTUtNlY2TDEyIDB6bTYgMTYuNTljMCAuNzA1LS42NDYgMS4yOS0xLjUyOSAxLjI5LS42MzEgMC0xLjM1MS0uMjU1LTEuODAxLS44MWwtNi03LjE0MXY2LjY2YzAgLjcyMS0uNTcgMS4yOS0xLjI3NCAxLjI5SDcuMzJjLS43MjEgMC0xLjI5LS42LTEuMjktMS4yOVY3LjQxYzAtLjcwNS42My0xLjI5IDEuNS0xLjI5LjY0NiAwIDEuMzguMjU1IDEuODMuODFsNS45NyA3LjE0MVY3LjQxYzAtLjcyMS42LTEuMjkgMS4yOS0xLjI5aC4wNzVjLjcyIDAgMS4yOS42IDEuMjkgMS4yOXY5LjE4SDE4eiIvPjwvc3ZnPg==;fontSize=8;spacingTop=40;" parent="102" vertex="1">
                    <mxGeometry x="860" y="128" width="30" height="30" as="geometry"/>
                </mxCell>
                <mxCell id="62" value="Nginx Reverse Proxy" style="shape=image;editableCssRules=.*;image=data:image/svg+xml,PHN2ZyB2aWV3Qm94PSIwIDAgMjQgMjQiIHhtbG5zPSJodHRwOi8vd3d3LnczLm9yZy8yMDAwL3N2ZyI+PHN0eWxlPip7ZmlsbDojMDA5NjM5fTwvc3R5bGU+PHBhdGggZD0iTTEyIDBMMS42MDUgNnYxMkwxMiAyNGwxMC4zOTUtNlY2TDEyIDB6bTYgMTYuNTljMCAuNzA1LS42NDYgMS4yOS0xLjUyOSAxLjI5LS42MzEgMC0xLjM1MS0uMjU1LTEuODAxLS44MWwtNi03LjE0MXY2LjY2YzAgLjcyMS0uNTcgMS4yOS0xLjI3NCAxLjI5SDcuMzJjLS43MjEgMC0xLjI5LS42LTEuMjktMS4yOVY3LjQxYzAtLjcwNS42My0xLjI5IDEuNS0xLjI5LjY0NiAwIDEuMzguMjU1IDEuODMuODFsNS45NyA3LjE0MVY3LjQxYzAtLjcyMS42LTEuMjkgMS4yOS0xLjI5aC4wNzVjLjcyIDAgMS4yOS42IDEuMjkgMS4yOXY5LjE4SDE4eiIvPjwvc3ZnPg==;fontSize=8;spacingTop=40;" parent="102" vertex="1">
                    <mxGeometry x="120" y="61" width="30" height="30" as="geometry"/>
                </mxCell>
                <mxCell id="66" value="Request" style="html=1;verticalAlign=bottom;labelBackgroundColor=none;endArrow=block;endFill=1;endSize=6;align=left;fontSize=12;entryX=0;entryY=0.5;entryDx=0;entryDy=0;exitX=1.032;exitY=0.045;exitDx=0;exitDy=0;exitPerimeter=0;" edge="1" parent="102" source="64" target="2">
                    <mxGeometry x="0.109" relative="1" as="geometry">
                        <mxPoint x="730" y="142" as="sourcePoint"/>
                        <mxPoint x="934.8900000000001" y="142.7025" as="targetPoint"/>
                        <mxPoint as="offset"/>
                        <Array as="points"/>
                    </mxGeometry>
                </mxCell>
                <mxCell id="81" value="Request" style="html=1;verticalAlign=bottom;labelBackgroundColor=none;endArrow=block;endFill=1;endSize=6;align=left;fontSize=12;entryX=0;entryY=0.5;entryDx=0;entryDy=0;" edge="1" parent="102" target="62">
                    <mxGeometry x="-0.5" relative="1" as="geometry">
                        <mxPoint x="20" y="76" as="sourcePoint"/>
                        <mxPoint x="270" y="99" as="targetPoint"/>
                        <mxPoint as="offset"/>
                    </mxGeometry>
                </mxCell>
                <mxCell id="84" value="" style="group" vertex="1" connectable="0" parent="102">
                    <mxGeometry width="40" height="520" as="geometry"/>
                </mxCell>
                <mxCell id="27" value="" style="shape=actor;whiteSpace=wrap;html=1;fontSize=15;" parent="84" vertex="1">
                    <mxGeometry y="460" width="40" height="60" as="geometry"/>
                </mxCell>
                <mxCell id="28" value="" style="shape=actor;whiteSpace=wrap;html=1;fontSize=15;" parent="84" vertex="1">
                    <mxGeometry width="40" height="60" as="geometry"/>
                </mxCell>
                <mxCell id="59" style="edgeStyle=none;html=1;exitX=0.5;exitY=0;exitDx=0;exitDy=0;entryX=0.5;entryY=1;entryDx=0;entryDy=0;fontSize=12;endArrow=none;endFill=0;" parent="84" source="27" target="28" edge="1">
                    <mxGeometry relative="1" as="geometry"/>
                </mxCell>
                <mxCell id="83" value="Request" style="html=1;verticalAlign=bottom;labelBackgroundColor=none;endArrow=block;endFill=1;endSize=6;align=left;fontSize=12;entryX=-0.045;entryY=-0.004;entryDx=0;entryDy=0;entryPerimeter=0;exitX=0.981;exitY=0.497;exitDx=0;exitDy=0;exitPerimeter=0;" edge="1" parent="102" source="62" target="72">
                    <mxGeometry x="-0.8435" relative="1" as="geometry">
                        <mxPoint x="100" y="77.86000000000001" as="sourcePoint"/>
                        <mxPoint x="180" y="77.86000000000001" as="targetPoint"/>
                        <mxPoint as="offset"/>
                    </mxGeometry>
                </mxCell>
                <mxCell id="86" value="Nginx Reverse Proxy" style="shape=image;editableCssRules=.*;image=data:image/svg+xml,PHN2ZyB2aWV3Qm94PSIwIDAgMjQgMjQiIHhtbG5zPSJodHRwOi8vd3d3LnczLm9yZy8yMDAwL3N2ZyI+PHN0eWxlPip7ZmlsbDojMDA5NjM5fTwvc3R5bGU+PHBhdGggZD0iTTEyIDBMMS42MDUgNnYxMkwxMiAyNGwxMC4zOTUtNlY2TDEyIDB6bTYgMTYuNTljMCAuNzA1LS42NDYgMS4yOS0xLjUyOSAxLjI5LS42MzEgMC0xLjM1MS0uMjU1LTEuODAxLS44MWwtNi03LjE0MXY2LjY2YzAgLjcyMS0uNTcgMS4yOS0xLjI3NCAxLjI5SDcuMzJjLS43MjEgMC0xLjI5LS42LTEuMjktMS4yOVY3LjQxYzAtLjcwNS42My0xLjI5IDEuNS0xLjI5LjY0NiAwIDEuMzguMjU1IDEuODMuODFsNS45NyA3LjE0MVY3LjQxYzAtLjcyMS42LTEuMjkgMS4yOS0xLjI5aC4wNzVjLjcyIDAgMS4yOS42IDEuMjkgMS4yOXY5LjE4SDE4eiIvPjwvc3ZnPg==;fontSize=8;spacingTop=40;" vertex="1" parent="102">
                    <mxGeometry x="120" y="436" width="30" height="30" as="geometry"/>
                </mxCell>
                <mxCell id="89" value="Response" style="html=1;verticalAlign=bottom;labelBackgroundColor=none;endArrow=block;endFill=1;endSize=6;align=left;fontSize=12;exitX=0;exitY=0.5;exitDx=0;exitDy=0;" edge="1" parent="102" source="86">
                    <mxGeometry x="0.3571" y="-1" relative="1" as="geometry">
                        <mxPoint x="153.5" y="420.5400000000003" as="sourcePoint"/>
                        <mxPoint x="20" y="450" as="targetPoint"/>
                        <mxPoint as="offset"/>
                    </mxGeometry>
                </mxCell>
                <mxCell id="92" value="" style="group" vertex="1" connectable="0" parent="102">
                    <mxGeometry x="960" width="690" height="520" as="geometry"/>
                </mxCell>
                <mxCell id="91" value="" style="group" vertex="1" connectable="0" parent="92">
                    <mxGeometry width="460" height="520" as="geometry"/>
                </mxCell>
                <mxCell id="30" value="Backend" style="whiteSpace=wrap;html=1;verticalAlign=top;fontSize=15;" parent="91" vertex="1">
                    <mxGeometry x="-30" width="460" height="520" as="geometry"/>
                </mxCell>
                <mxCell id="31" value="Router" style="shape=umlLifeline;perimeter=lifelinePerimeter;whiteSpace=wrap;html=1;container=1;collapsible=0;recursiveResize=0;outlineConnect=0;" parent="91" vertex="1">
                    <mxGeometry x="20" y="40" width="120" height="470" as="geometry"/>
                </mxCell>
                <mxCell id="32" value="" style="html=1;points=[];perimeter=orthogonalPerimeter;" parent="31" vertex="1">
                    <mxGeometry x="55" y="107.19" width="10" height="255.62" as="geometry"/>
                </mxCell>
                <mxCell id="33" value="&lt;font style=&quot;font-size: 12px;&quot;&gt;Router&lt;/font&gt;" style="rounded=0;whiteSpace=wrap;html=1;fontSize=16;" parent="31" vertex="1">
                    <mxGeometry y="430" width="120" height="40" as="geometry"/>
                </mxCell>
                <mxCell id="41" value="Request" style="html=1;verticalAlign=bottom;labelBackgroundColor=none;endArrow=block;endFill=1;endSize=6;align=left;fontSize=12;" parent="31" edge="1">
                    <mxGeometry x="-0.3571" relative="1" as="geometry">
                        <mxPoint x="65" y="119" as="sourcePoint"/>
                        <mxPoint x="205" y="119" as="targetPoint"/>
                        <mxPoint as="offset"/>
                    </mxGeometry>
                </mxCell>
                <mxCell id="95" value="Nginx Reverse Proxy" style="shape=image;editableCssRules=.*;image=data:image/svg+xml,PHN2ZyB2aWV3Qm94PSIwIDAgMjQgMjQiIHhtbG5zPSJodHRwOi8vd3d3LnczLm9yZy8yMDAwL3N2ZyI+PHN0eWxlPip7ZmlsbDojMDA5NjM5fTwvc3R5bGU+PHBhdGggZD0iTTEyIDBMMS42MDUgNnYxMkwxMiAyNGwxMC4zOTUtNlY2TDEyIDB6bTYgMTYuNTljMCAuNzA1LS42NDYgMS4yOS0xLjUyOSAxLjI5LS42MzEgMC0xLjM1MS0uMjU1LTEuODAxLS44MWwtNi03LjE0MXY2LjY2YzAgLjcyMS0uNTcgMS4yOS0xLjI3NCAxLjI5SDcuMzJjLS43MjEgMC0xLjI5LS42LTEuMjktMS4yOVY3LjQxYzAtLjcwNS42My0xLjI5IDEuNS0xLjI5LjY0NiAwIDEuMzguMjU1IDEuODMuODFsNS45NyA3LjE0MVY3LjQxYzAtLjcyMS42LTEuMjkgMS4yOS0xLjI5aC4wNzVjLjcyIDAgMS4yOS42IDEuMjkgMS4yOXY5LjE4SDE4eiIvPjwvc3ZnPg==;fontSize=8;spacingTop=40;" vertex="1" parent="31">
                    <mxGeometry x="-120" y="346.81" width="30" height="30" as="geometry"/>
                </mxCell>
                <mxCell id="38" value="Controller" style="shape=umlLifeline;perimeter=lifelinePerimeter;whiteSpace=wrap;html=1;container=1;collapsible=0;recursiveResize=0;outlineConnect=0;" parent="91" vertex="1">
                    <mxGeometry x="170" y="40" width="120" height="470" as="geometry"/>
                </mxCell>
                <mxCell id="39" value="" style="html=1;points=[];perimeter=orthogonalPerimeter;" parent="38" vertex="1">
                    <mxGeometry x="55" y="122.19" width="10" height="225.62" as="geometry"/>
                </mxCell>
                <mxCell id="40" value="&lt;span style=&quot;font-size: 12px;&quot;&gt;Controller&lt;/span&gt;" style="rounded=0;whiteSpace=wrap;html=1;fontSize=16;" parent="38" vertex="1">
                    <mxGeometry y="430" width="120" height="40" as="geometry"/>
                </mxCell>
                <mxCell id="45" value="DB-Connector" style="shape=umlLifeline;perimeter=lifelinePerimeter;whiteSpace=wrap;html=1;container=1;collapsible=0;recursiveResize=0;outlineConnect=0;" parent="91" vertex="1">
                    <mxGeometry x="320" y="40" width="120" height="470" as="geometry"/>
                </mxCell>
                <mxCell id="46" value="" style="html=1;points=[];perimeter=orthogonalPerimeter;" parent="45" vertex="1">
                    <mxGeometry x="55" y="133.51" width="10" height="202.98" as="geometry"/>
                </mxCell>
                <mxCell id="47" value="&lt;font style=&quot;font-size: 12px;&quot;&gt;Router&lt;/font&gt;" style="rounded=0;whiteSpace=wrap;html=1;fontSize=16;" parent="45" vertex="1">
                    <mxGeometry y="430" width="120" height="40" as="geometry"/>
                </mxCell>
                <mxCell id="54" value="Request" style="html=1;verticalAlign=bottom;labelBackgroundColor=none;endArrow=block;endFill=1;endSize=6;align=left;fontSize=12;" parent="45" edge="1">
                    <mxGeometry x="-0.3571" relative="1" as="geometry">
                        <mxPoint x="-85" y="130" as="sourcePoint"/>
                        <mxPoint x="55" y="130" as="targetPoint"/>
                        <mxPoint as="offset"/>
                    </mxGeometry>
                </mxCell>
                <mxCell id="57" value="Response" style="html=1;verticalAlign=bottom;labelBackgroundColor=none;endArrow=block;endFill=1;endSize=6;align=left;fontSize=12;exitX=0.05;exitY=1;exitDx=0;exitDy=0;exitPerimeter=0;" parent="91" source="46" target="39" edge="1">
                    <mxGeometry x="0.3571" y="-1" relative="1" as="geometry">
                        <mxPoint x="375" y="383" as="sourcePoint"/>
                        <mxPoint x="240" y="380" as="targetPoint"/>
                        <mxPoint as="offset"/>
                    </mxGeometry>
                </mxCell>
                <mxCell id="44" value="Response" style="html=1;verticalAlign=bottom;labelBackgroundColor=none;endArrow=block;endFill=1;endSize=6;align=left;fontSize=12;exitX=0.012;exitY=1;exitDx=0;exitDy=0;exitPerimeter=0;entryX=1.152;entryY=0.942;entryDx=0;entryDy=0;entryPerimeter=0;" parent="91" source="39" target="32" edge="1">
                    <mxGeometry x="0.3571" y="-1" relative="1" as="geometry">
                        <mxPoint x="225" y="401" as="sourcePoint"/>
                        <mxPoint x="85" y="401" as="targetPoint"/>
                        <mxPoint as="offset"/>
                    </mxGeometry>
                </mxCell>
                <mxCell id="97" value="Request" style="html=1;verticalAlign=bottom;labelBackgroundColor=none;endArrow=block;endFill=1;endSize=6;align=left;fontSize=12;exitX=1;exitY=0.5;exitDx=0;exitDy=0;" edge="1" parent="91" source="2">
                    <mxGeometry x="-0.3571" relative="1" as="geometry">
                        <mxPoint x="-60" y="144" as="sourcePoint"/>
                        <mxPoint x="76" y="144" as="targetPoint"/>
                        <mxPoint as="offset"/>
                    </mxGeometry>
                </mxCell>
                <mxCell id="100" value="Response" style="html=1;verticalAlign=bottom;labelBackgroundColor=none;endArrow=block;endFill=1;endSize=6;align=left;fontSize=12;exitX=0.012;exitY=1;exitDx=0;exitDy=0;exitPerimeter=0;entryX=1;entryY=0.5;entryDx=0;entryDy=0;" edge="1" parent="91" target="95">
                    <mxGeometry x="0.3571" y="-1" relative="1" as="geometry">
                        <mxPoint x="74.60000000000036" y="402.0000000000001" as="sourcePoint"/>
                        <mxPoint x="-64" y="402.1740400000001" as="targetPoint"/>
                        <mxPoint as="offset"/>
                    </mxGeometry>
                </mxCell>
                <mxCell id="55" value="" style="group" parent="92" vertex="1" connectable="0">
                    <mxGeometry x="530" width="160" height="520" as="geometry"/>
                </mxCell>
                <mxCell id="34" value="MongoDB" style="whiteSpace=wrap;html=1;verticalAlign=top;fontSize=15;" parent="55" vertex="1">
                    <mxGeometry width="160" height="520" as="geometry"/>
                </mxCell>
                <mxCell id="35" value="Database" style="shape=umlLifeline;perimeter=lifelinePerimeter;whiteSpace=wrap;html=1;container=1;collapsible=0;recursiveResize=0;outlineConnect=0;" parent="55" vertex="1">
                    <mxGeometry x="20" y="40" width="120" height="470" as="geometry"/>
                </mxCell>
                <mxCell id="37" value="&lt;font style=&quot;font-size: 12px;&quot;&gt;Database&lt;/font&gt;" style="rounded=0;whiteSpace=wrap;html=1;fontSize=16;" parent="35" vertex="1">
                    <mxGeometry y="430" width="120" height="40" as="geometry"/>
                </mxCell>
                <mxCell id="36" value="" style="html=1;points=[];perimeter=orthogonalPerimeter;" parent="55" vertex="1">
                    <mxGeometry x="75" y="201.1" width="10" height="147.81" as="geometry"/>
                </mxCell>
                <mxCell id="60" value="" style="curved=1;endArrow=classic;html=1;fontSize=12;exitX=1.152;exitY=0.299;exitDx=0;exitDy=0;exitPerimeter=0;entryX=1.014;entryY=0.384;entryDx=0;entryDy=0;entryPerimeter=0;" parent="55" source="36" target="36" edge="1">
                    <mxGeometry width="50" height="50" relative="1" as="geometry">
                        <mxPoint x="210" y="270" as="sourcePoint"/>
                        <mxPoint x="300" y="230" as="targetPoint"/>
                        <Array as="points">
                            <mxPoint x="110" y="230"/>
                            <mxPoint x="130" y="240"/>
                            <mxPoint x="130" y="260"/>
                            <mxPoint x="100" y="270"/>
                        </Array>
                    </mxGeometry>
                </mxCell>
                <mxCell id="61" value="Get Data" style="edgeLabel;html=1;align=center;verticalAlign=middle;resizable=0;points=[];fontSize=12;" parent="60" vertex="1" connectable="0">
                    <mxGeometry x="-0.2995" y="-1" relative="1" as="geometry">
                        <mxPoint x="-2" y="10" as="offset"/>
                    </mxGeometry>
                </mxCell>
                <mxCell id="48" value="Request" style="html=1;verticalAlign=bottom;labelBackgroundColor=none;endArrow=block;endFill=1;endSize=6;align=left;fontSize=12;exitX=0.964;exitY=0.051;exitDx=0;exitDy=0;exitPerimeter=0;" parent="92" edge="1">
                    <mxGeometry x="-0.2319" relative="1" as="geometry">
                        <mxPoint x="384.6399999999999" y="195.99532999999997" as="sourcePoint"/>
                        <mxPoint x="606" y="197" as="targetPoint"/>
                        <mxPoint as="offset"/>
                    </mxGeometry>
                </mxCell>
                <mxCell id="49" value="Response" style="html=1;verticalAlign=bottom;labelBackgroundColor=none;endArrow=block;endFill=1;endSize=6;align=left;fontSize=12;exitX=0.065;exitY=1;exitDx=0;exitDy=0;exitPerimeter=0;spacingLeft=7;" parent="92" source="36" target="46" edge="1">
                    <mxGeometry x="0.3247" relative="1" as="geometry">
                        <mxPoint x="590" y="365" as="sourcePoint"/>
                        <mxPoint x="386" y="365" as="targetPoint"/>
                        <mxPoint as="offset"/>
                    </mxGeometry>
                </mxCell>
                <mxCell id="77" value="Response" style="html=1;verticalAlign=bottom;labelBackgroundColor=none;endArrow=block;endFill=1;endSize=6;align=left;fontSize=12;exitX=0;exitY=0.5;exitDx=0;exitDy=0;entryX=1.208;entryY=0.958;entryDx=0;entryDy=0;entryPerimeter=0;startArrow=none;" edge="1" parent="102" source="95" target="64">
                    <mxGeometry x="0.2985" y="1" relative="1" as="geometry">
                        <mxPoint x="1035" y="402.81000000000006" as="sourcePoint"/>
                        <mxPoint x="920" y="410" as="targetPoint"/>
                        <mxPoint as="offset"/>
                    </mxGeometry>
                </mxCell>
            </root>
        </mxGraphModel>
    </diagram>
</mxfile>